# xmcd
#
# Track frame offsets: 
#        150
#        11558
#        24356
#        34615
#        46692
#        59377
#        72585
#        86497
#        98563
#        110394
#        123377
#        136208
#        147785
#        158617
#        170288
#        182888
#
# Disc length: 2610 seconds
#
# Revision: 0
# Processed by: cddbd v1.5.1PL0 Copyright (c) Steve Scherf et al.
# Submitted via: ExactAudioCopy v0.95a2
#
DISCID=c60a3010
DTITLE=Sam Lightning' Hopkins - Picture On The Wall
DYEAR=2003
DGENRE=Blues
TTITLE0=I Wonder Why
TTITLE1=Why Did You Get Mad At Me
TTITLE2=Down Baby
TTITLE3=Contrary Mary
TTITLE4=Picture On The Wall
TTITLE5=Down To The River
TTITLE6=Untrue Blues
TTITLE7=Big Mama Jump
TTITLE8=I'm Begging You
TTITLE9=L.A. Blues
TTITLE10=No Good Woman
TTITLE11=Papa Bones Boogie
TTITLE12=Short Haired Woman
TTITLE13=See See Rider
TTITLE14=New York Boogie
TTITLE15=Thinkin' And Worryin'
EXTD=
EXTT0=
EXTT1=
EXTT2=
EXTT3=
EXTT4=
EXTT5=
EXTT6=
EXTT7=
EXTT8=
EXTT9=
EXTT10=
EXTT11=
EXTT12=
EXTT13=
EXTT14=
EXTT15=
PLAYORDER=
